<?xml version="1.0" encoding="UTF-8"?>
<svg id="Layer_2" data-name="Layer 2" xmlns="http://www.w3.org/2000/svg" viewBox="0 0 358.09 206.5">
  <defs>
    <style>
      .cls-1 {
        fill: #6b9e4e;
      }
    </style>
  </defs>
  <g id="Layer_1-2" data-name="Layer 1">
    <g>
      <g>
        <path class="cls-1" d="M0,168.22L9.72,97.04l2.51,.45,2.19-1.16,2.82,8.6,3.31-7.62,2.73-.72,9.85,36.15,2.11,.27,10.8-35.79,2.28,1.12,4.52-3.14,3.23,2.28,2.46-.36,8.33,70.64-3.18-2.37-2.06,3.58-4.21-5.51-2.1,6.23-1.3-.09-4.3-38.43-2.11,.45-11.29,36.69-.45,.22-3.31-7.61-1.57,7.12-.9-.09-9.9-35.66-1.93-.09-5.24,36.69-1.03-.45-2.19,.99-3.09-5.87-5.42,5.33-1.3-.67Z"/>
        <path class="cls-1" d="M69.7,111.28l1.66-1.66,4.93,3.76,.27-5.42,3.49-.45,9.99,23.11,1.48,.18,5.6-22.58,1.39-.27,1.84,5.24,3.76-4.43,1.16,1.57,3.4-1.16-15.05,57.11-1.66,.94-1.93-4.12-4.21,4.12-2.02-1.39-1.07,.36,5.6-25.13-4.88-.18-13.75-29.61Z"/>
        <path class="cls-1" d="M112.96,104.65l2.15-2.91-.67-.67c-.18-.24-.37-.49-.58-.76-.21-.27-.37-.6-.49-.99,2.51-.75,5.52-1.43,9.03-2.06,3.51-.63,7.12-1.03,10.82-1.21,1.16-.06,2.33-.09,3.49-.09,2.36,0,4.67,.13,6.94,.4,3.35,.39,6.24,1.25,8.69,2.6,2.97,1.64,5.09,4.12,6.38,7.44,.99,2.57,1.5,5.32,1.53,8.24,0,.81-.04,1.63-.13,2.46-.34,3.82-1.47,7.6-3.37,11.33-1.9,3.73-4.56,6.81-7.96,9.23,1.06,2.39,2.26,5.04,3.6,7.95,1.34,2.91,2.65,5.7,3.91,8.35,1.26,2.66,2.37,4.98,3.32,6.97,.96,1.99,1.58,3.26,1.88,3.83l-1.3,1.17-7.3-5.42,1.33,6.72-2.45-.72-1.42,1.61-14.69-24.37-7.69,1.93c-.33,3.11-.6,6.03-.81,8.78-.11,1.16-.22,2.34-.32,3.54-.11,1.19-.18,2.31-.21,3.36-.03,1.05-.06,1.99-.09,2.84-.03,.85-.04,1.49-.04,1.9l-.83,.67-3.5-5.33-2.14,5.78-3.15-3.85-1.05,.99c0-1.76-.01-3.91-.04-6.45-.03-2.54-.04-5.28-.04-8.22s-.01-6-.04-9.18c-.03-3.18-.04-6.34-.04-9.47v-17.38l-1.66-1.57,6.03-5.42-7.08-2.02Zm15.2,28.98c1.97-.54,4.03-1.19,6.19-1.95,2.16-.76,4.16-1.71,5.99-2.84,1.83-1.13,3.36-2.46,4.58-3.99,1.22-1.52,1.89-3.36,2.01-5.51v-.76c0-2.09-.48-3.76-1.43-5.02-1.07-1.4-2.5-2.39-4.29-2.96-1.34-.42-2.82-.63-4.42-.63-.54,0-1.07,.03-1.61,.09-2.23,.18-4.42,.58-6.57,1.21-.06,3.67-.15,7.35-.27,11.04-.12,3.69-.18,7.46-.18,11.31Z"/>
        <path class="cls-1" d="M165.73,100.71l2.11-1.48-1.25-2.11,31.14-1.84-1.39,1.93,2.42,1.57-4.44,2.19,4.53,3.67-.85,1.84-16.13,1.75-.45,17.34,17.25-.63,.45,1.66-3.67,4.03,3.13,1.84-.49,1.93-16.48,2.28,.45,20.16,16.62-.72,.36,1.3-5.6,2.28,6.23,2.19-2.37,3.4,1.21,1.93-20.66,1.75,.69-3.14-5.9,.27,.26-5.51-4.13,.76,.17-51.65h-2.37l-.58-1.84,6.31-4.21-6.54-2.96Z"/>
        <path class="cls-1" d="M207.09,134.76c.09-2.93,.27-5.67,.54-8.24,.24-2.93,.82-5.94,1.73-9.05,.91-3.11,2.14-6,3.69-8.69,1.54-2.69,3.4-5.08,5.57-7.19s4.66-3.68,7.47-4.73c2.33-.84,4.87-1.25,7.62-1.25h.85c3.05,.08,6.43,.89,10.17,2.41l.36,1.65-5.69,2.92,4.97,4.52-3.14,1.48,1.75,2.91c-1.28-.37-2.61-.64-3.99-.82-1.05-.15-2.08-.23-3.09-.23l-1.03,.04c-1.37,.06-2.72,.29-4.03,.69-1.31,.4-2.52,1.07-3.63,2.01-1.22,1.01-2.31,2.59-3.27,4.74-.96,2.15-1.72,4.57-2.31,7.25-.58,2.68-.96,5.54-1.14,8.56-.06,1.07-.09,2.1-.09,3.11,0,1.89,.1,3.71,.31,5.44,.33,2.72,.97,5.13,1.93,7.25s2.22,3.65,3.81,4.6c.93,.55,2.05,.92,3.36,1.1,.92,.12,1.88,.17,2.87,.14h1.17c1.37-.06,2.74-.21,4.1-.43,1.36-.23,2.58-.46,3.65-.71-.12,.3-.19,.64-.22,1.02-.03,.38-.11,.75-.22,1.1-.12,.42-.21,.85-.27,1.29l4.39,2.1-6.94,4.55,5.96,1.56-.76,1.65c-2.69,.98-5.6,1.58-8.74,1.79-.81,.06-1.61,.09-2.42,.09-2.3,0-4.55-.22-6.76-.67-2.96-.6-5.68-1.63-8.17-3.11-2.49-1.48-4.37-3.41-5.66-5.8-1.29-2.33-2.27-4.88-2.94-7.66s-1.15-5.63-1.42-8.56c-.21-2.21-.31-4.42-.31-6.63-.03-.72-.03-1.45,0-2.19Z"/>
        <path class="cls-1" d="M253.18,168.53l.18-70.46,2.51,.27,2.82-2.11,3.58,9.45,4.03-10.57,2.02,.27-.99,72.12-3.14-1.75-2.64,3.4-2.78-7.26-3,7.35-2.6-.72Z"/>
        <path class="cls-1" d="M274.36,101.74l.54-2.69c3.11-1.22,6.46-2.13,10.06-2.71,3.6-.58,7.11-.87,10.52-.87s6.53,.32,9.35,.96c2.82,.64,5.03,1.58,6.62,2.8,2.28,1.82,4.04,4.07,5.27,6.74,1.23,2.67,2.01,5.46,2.34,8.35,.12,1.11,.2,2.21,.22,3.31,0,1.79-.18,3.55-.54,5.29-.54,2.81-1.46,5.26-2.74,7.35-2.76,4.39-6.44,7.88-11.03,10.48-4.59,2.6-9.61,4.6-15.07,6-.12,1.64-.22,3.45-.31,5.42-.09,1.97-.17,3.92-.22,5.85-.06,1.93-.09,3.76-.09,5.49v4.43l-1.98,1.03-4.62-9.63-3.7,7.79-1.41-1.21c-.06-1.52-.11-3.55-.15-6.09-.04-2.54-.11-5.37-.2-8.49-.09-3.12-.16-6.41-.22-9.85-.06-3.45-.1-6.91-.13-10.37-.03-1.73-.04-3.43-.02-5.08,.01-1.66,.02-3.29,.02-4.9,.03-3.23,.07-6.15,.13-8.78l2.29-3.49-2.46-1.34,5.33-4.97-7.79-.81Zm15.01,31.71c1.47-.18,2.86-.5,4.18-.96,1.32-.46,2.53-.96,3.64-1.5,1.11-.54,2.06-1.1,2.85-1.68,.79-.58,1.4-1.07,1.82-1.46,.93-.87,1.79-1.92,2.58-3.16,.79-1.24,1.42-2.55,1.86-3.92,.33-1.08,.49-2.18,.49-3.31,0-.33-.02-.66-.04-.99-.12-1.46-.67-2.84-1.66-4.12-1.11-1.46-2.34-2.43-3.68-2.91-1.2-.45-2.43-.67-3.68-.67h-.45c-1.41,.06-2.77,.34-4.09,.83-1.32,.49-2.5,.99-3.55,1.5-.12,3.49-.18,7.09-.18,10.77s-.03,7.55-.09,11.58Z"/>
        <path class="cls-1" d="M324.17,100.71l2.11-1.48-1.25-2.11,31.14-1.84-1.39,1.93,2.42,1.57-4.43,2.19,4.52,3.67-.85,1.84-16.13,1.75-.45,17.34,17.25-.63,.45,1.66-3.67,4.03,3.14,1.84-.49,1.93-16.49,2.28,.45,20.16,16.62-.72,.36,1.3-5.6,2.28,6.23,2.19-2.37,3.4,1.21,1.93-20.66,1.75,.69-3.14-5.9,.27,.26-5.51-4.13,.76,.17-51.65h-2.37l-.58-1.84,6.31-4.21-6.54-2.96Z"/>
      </g>
      <g>
        <path class="cls-1" d="M45.24,189.4l.18-.12,1.57,1.68,.24-1.44,.65,.43,.51-.51,2.28,11.59,.25,.04,2.61-11.83,.61-.06,.28,1.89,1.25-1.66,.63,.2-3.69,16.03-.71-.34-.69,.58-1.02-1.25-.66,1.16-.43-.15-3.87-16.23Z"/>
        <path class="cls-1" d="M57.25,200.82c-.03-.38-.04-.76-.05-1.14,0-.42,.02-.84,.06-1.27,.14-1.44,.34-2.58,.6-3.4s.65-1.45,1.16-1.89c.19-.16,.42-.32,.71-.48,.29-.16,.61-.3,.96-.43s.74-.21,1.15-.25c.19-.02,.39-.03,.58-.03l.65,.04-.04,1.2,1.04-.62,.45,.64,.7-.27c.52,.54,.92,1.31,1.2,2.31,.28,1,.42,2.23,.42,3.69,0,.49-.03,1.02-.08,1.6-.06,.58-.15,1.14-.3,1.69-.14,.55-.33,1.06-.56,1.52-.24,.46-.53,.82-.88,1.08-.5,.35-1,.63-1.5,.81-.5,.19-.99,.31-1.47,.35-.22,.02-.44,.03-.66,.03-.24,0-.47-.01-.69-.04-.42-.06-.8-.15-1.15-.28-.44-.16-.81-.48-1.13-.96-.32-.48-.58-1.05-.78-1.72s-.33-1.4-.39-2.2Zm2.52-1.98c-.02,.27-.03,.54-.02,.81,0,.5,.03,1,.1,1.48,.1,.74,.3,1.33,.58,1.78,.14,.23,.34,.4,.61,.52,.27,.12,.56,.17,.86,.17s.6-.05,.87-.16c.28-.11,.49-.28,.63-.51,.14-.23,.28-.56,.41-1s.24-.92,.32-1.44,.13-1.08,.14-1.65v-.23c0-.49-.04-.96-.12-1.41-.09-.52-.24-.99-.45-1.4-.21-.41-.5-.73-.86-.94-.23-.14-.5-.21-.8-.21h-.05c-.33,0-.61,.12-.84,.33-.41,.37-.73,.91-.96,1.62s-.38,1.46-.43,2.24Z"/>
        <path class="cls-1" d="M68.03,197.28c.06-.72,.27-1.38,.65-1.97,.38-.59,.87-1.11,1.46-1.54s1.25-.79,1.98-1.06c.73-.28,1.47-.46,2.24-.54,.15-.02,.32-.03,.53-.04,.06,0,.11,0,.17,.01,.29,0,.53,.02,.73,.03l.08,.27-1.4,.77,1.11,.53-.47,.45,.33,.61c-.51,.04-1.02,.11-1.52,.21-.5,.1-.94,.23-1.33,.41-.39,.17-.72,.39-.99,.63-.27,.25-.43,.54-.49,.86-.01,.08-.02,.17-.02,.25,0,.27,.09,.49,.27,.67,.23,.24,.51,.45,.83,.61,.16,.07,.34,.13,.52,.19s.37,.12,.54,.17c.18,.06,.34,.11,.5,.16,.15,.05,.29,.09,.4,.11,.71,.21,1.26,.5,1.66,.87,.4,.37,.6,.91,.6,1.63,0,.76-.22,1.43-.65,2-.43,.58-1.1,1.09-2.02,1.53-.36,.17-.73,.31-1.09,.41-.36,.1-.71,.21-1.05,.3-.34,.1-.66,.17-.95,.21-.3,.04-.57,.08-.82,.1l.37-.67-.99-.28,.43-.62-.37-.38c.23-.05,.49-.12,.78-.19,.29-.07,.58-.14,.88-.21,.27-.08,.55-.19,.83-.31,.28-.12,.54-.27,.77-.44,.23-.17,.42-.36,.57-.57,.15-.21,.23-.43,.23-.67,0-.3-.15-.54-.45-.74-.3-.19-.63-.35-.99-.46-.37-.1-.74-.2-1.1-.3s-.63-.18-.81-.25c-.64-.26-1.14-.6-1.5-1.04-.31-.37-.47-.86-.47-1.47,0-.1,0-.2,.01-.3Z"/>
        <path class="cls-1" d="M81.78,192.98l.12-.52c.58-.21,1.25-.4,2-.56,.75-.16,1.51-.26,2.26-.31,.2-.01,.39-.02,.58-.01,.54,0,1.05,.05,1.53,.14,.65,.12,1.15,.35,1.51,.68,.57,.55,.96,1.19,1.16,1.9,.14,.48,.21,.97,.2,1.45,0,.23-.01,.46-.04,.68-.09,.72-.31,1.42-.66,2.1-.35,.68-.79,1.27-1.32,1.77-.18,.16-.4,.32-.68,.49-.28,.17-.58,.33-.92,.49-.34,.16-.71,.3-1.11,.44-.4,.14-.8,.24-1.2,.33l-.02,3.69-.37,.13-.41-1.19-.82,1.15-.53-.64-.41,.26-.1-10.62-.47-.36,1.25-1.32-1.54-.17Zm3.3,1.57l.11,4.99c.35-.12,.68-.26,.97-.4,.25-.11,.5-.23,.74-.35,.24-.12,.42-.23,.53-.33,.3-.27,.55-.59,.76-.95,.21-.37,.35-.74,.41-1.12,.02-.14,.03-.27,.04-.39,0-.23-.04-.46-.11-.67-.11-.34-.35-.62-.71-.85-.17-.1-.4-.16-.68-.17-.02,0-.04,0-.05,.01-.3,0-.6,.02-.9,.05-.36,.06-.73,.12-1.11,.19Z"/>
        <path class="cls-1" d="M93.06,192.84l.4,.06,.59-.43,.62,1.05,1.1-1.47,.34,.11-.36,11.43h3.51l-.87,.74,1.19,.47-.6,.73,.22,.3-4.78,.35-.19-1.16-1.13,.17-.04-12.34Z"/>
        <path class="cls-1" d="M100.45,205.44l2.74-13.11,.85,.26,.78-.68,1.17,1.44,.66-1.3,.74,.45,.68-.39,2.48,13.42-.47-.32-.78,.45-.6-.77-.57,.58-.79-2.87-3.95,.32-.76,2.89-.22,.08-.67-.85-.85,.67-.45-.27Zm3.47-4.95l3.04-.28-1.06-4.76-.89,.06-1.09,4.98Z"/>
        <path class="cls-1" d="M110.25,193.37l.1-.37,8.4-.6-.34,.53,.6,.62-1.03,.65,1.03,.45-.08,.36-2.77,.2-.15,10.57-.32,.09-.7-1.51-.49,1.3-.52-.53-.61,.38-.1-10.17-2.57,.17,.1-.38-.36-.29,1.19-.89-1.38-.56Z"/>
        <path class="cls-1" d="M120.08,197.28c.06-.72,.27-1.38,.65-1.97,.38-.59,.87-1.11,1.46-1.54s1.25-.79,1.98-1.06c.73-.28,1.47-.46,2.24-.54,.15-.02,.32-.03,.53-.04,.06,0,.11,0,.17,.01,.29,0,.53,.02,.73,.03l.08,.27-1.4,.77,1.11,.53-.47,.45,.33,.61c-.51,.04-1.02,.11-1.52,.21-.5,.1-.94,.23-1.33,.41-.39,.17-.72,.39-.99,.63-.27,.25-.43,.54-.49,.86-.01,.08-.02,.17-.02,.25,0,.27,.09,.49,.27,.67,.23,.24,.51,.45,.83,.61,.16,.07,.34,.13,.52,.19s.37,.12,.54,.17c.18,.06,.34,.11,.5,.16,.15,.05,.29,.09,.4,.11,.71,.21,1.26,.5,1.66,.87,.4,.37,.6,.91,.6,1.63,0,.76-.22,1.43-.65,2-.43,.58-1.1,1.09-2.02,1.53-.36,.17-.73,.31-1.09,.41-.36,.1-.71,.21-1.05,.3-.34,.1-.66,.17-.95,.21-.3,.04-.57,.08-.82,.1l.37-.67-.99-.28,.43-.62-.37-.38c.23-.05,.49-.12,.78-.19,.29-.07,.58-.14,.88-.21,.27-.08,.55-.19,.83-.31,.28-.12,.54-.27,.77-.44,.23-.17,.42-.36,.57-.57,.15-.21,.23-.43,.23-.67,0-.3-.15-.54-.45-.74-.3-.19-.63-.35-.99-.46-.37-.1-.74-.2-1.1-.3s-.63-.18-.81-.25c-.64-.26-1.14-.6-1.5-1.04-.31-.37-.47-.86-.47-1.47,0-.1,0-.2,.01-.3Z"/>
        <path class="cls-1" d="M133.82,192.98l.12-.52c.58-.21,1.25-.4,2-.56,.75-.16,1.51-.26,2.26-.31,.2-.01,.39-.02,.58-.01,.54,0,1.05,.05,1.53,.14,.65,.12,1.15,.35,1.51,.68,.57,.55,.96,1.19,1.16,1.9,.14,.48,.21,.97,.2,1.45,0,.23-.01,.46-.04,.68-.09,.72-.31,1.42-.66,2.1-.35,.68-.79,1.27-1.32,1.77-.18,.16-.4,.32-.68,.49-.28,.17-.58,.33-.92,.49-.34,.16-.71,.3-1.11,.44-.4,.14-.8,.24-1.2,.33l-.02,3.69-.37,.13-.41-1.19-.82,1.15-.53-.64-.41,.26-.1-10.62-.47-.36,1.25-1.32-1.54-.17Zm3.3,1.57l.11,4.99c.35-.12,.68-.26,.97-.4,.25-.11,.5-.23,.74-.35,.24-.12,.42-.23,.53-.33,.3-.27,.55-.59,.76-.95,.21-.37,.35-.74,.41-1.12,.02-.14,.03-.27,.04-.39,0-.23-.04-.46-.11-.67-.11-.34-.35-.62-.71-.85-.17-.1-.4-.16-.68-.17-.02,0-.04,0-.05,.01-.3,0-.6,.02-.9,.05-.36,.06-.73,.12-1.11,.19Z"/>
        <path class="cls-1" d="M144.44,192.95l.07-.39c.78-.26,1.56-.45,2.35-.59s1.54-.21,2.28-.21h.11c.7,0,1.35,.06,1.95,.18,.63,.12,1.18,.34,1.65,.64,.42,.27,.76,.61,1.02,1.02,.25,.41,.41,.87,.45,1.38,.01,.12,.02,.26,.02,.39,0,.39-.06,.81-.18,1.25-.15,.59-.42,1.19-.8,1.79-.07,.12-.18,.28-.33,.47-.15,.19-.31,.39-.48,.6-.17,.21-.36,.42-.56,.62-.2,.2-.39,.39-.58,.54,.18,.41,.36,.84,.56,1.29,.2,.45,.4,.89,.59,1.31s.38,.8,.55,1.15,.31,.62,.41,.81l-.15,.16-1.25-.68-.06,1.06-.43-.19-.39,.26-2.57-3.97-1.33,.53-.1,3.18-.34-.04-.71-1.11-.55,1.43-.39-.16c-.01-.42-.04-1.03-.07-1.81-.03-.79-.07-1.65-.09-2.57-.03-.93-.04-1.87-.04-2.82s.03-1.82,.08-2.6l.06-.83-.67-.49,1.12-1.02-1.21-.58Zm3.07,6.68c.51-.2,1.03-.47,1.57-.81,.54-.34,1-.71,1.4-1.11,.39-.4,.68-.82,.86-1.26,.08-.19,.12-.39,.12-.58,0-.23-.06-.45-.18-.67-.12-.23-.39-.37-.8-.44-.33-.06-.67-.08-1.02-.08h-.24c-.51,.03-1.07,.09-1.68,.2l-.04,4.76Z"/>
        <path class="cls-1" d="M155.42,193.42l.29-.68-.15-.28,6.08-.4,.19,.83-1.32,.91,1.25,.38-.17,.47-3.1,.28-.07,3.27,3.1-.1-.35,1.11,.61,.25-.1,.57-3.21,.32,.13,3.46,3.2-.12-.21,1.1,.57,.26-.24,.81-5.01,.29,.08-1.08-1.3,.08,.13-9.94-.26-.42,.91-.79-1.08-.57Zm1.93-2.81l2.38-3.65,.49-.04-.15,.85,1.28-.1-.12,.51,.45,.19-2.83,2.51-.51-.51-.75,.47-.23-.22Z"/>
        <path class="cls-1" d="M162.86,193.89l.42-.6-.19-.63,6.77-.32-.38,1.32,.5,.3-.22,.53-3.51,.24-.06,3.12,3.14-.07-.28,1.12,.64,.26-.12,.6-3.4,.41,.12,5.41-.43,.17-.74-1.52-.66,1.4-.25-.34-.58,.18-.12-10.33-.45-.12,.93-.57-1.15-.53Z"/>
        <path class="cls-1" d="M171.12,193.42l.29-.68-.15-.28,6.08-.4,.19,.83-1.32,.91,1.25,.38-.17,.47-3.1,.28-.07,3.27,3.1-.1-.35,1.11,.61,.25-.1,.57-3.21,.32,.13,3.46,3.2-.12-.21,1.1,.57,.26-.24,.81-5.01,.29,.08-1.08-1.3,.08,.13-9.94-.26-.42,.91-.79-1.08-.57Zm1.93-2.81l2.38-3.65,.49-.04-.15,.85,1.28-.1-.12,.51,.45,.19-2.83,2.51-.51-.51-.75,.47-.23-.22Z"/>
        <path class="cls-1" d="M178.58,192.95l.07-.39c.78-.26,1.56-.45,2.35-.59s1.54-.21,2.28-.21h.11c.7,0,1.35,.06,1.95,.18,.63,.12,1.18,.34,1.65,.64,.42,.27,.76,.61,1.02,1.02,.25,.41,.4,.87,.45,1.38,.02,.12,.02,.26,.02,.39,0,.39-.06,.81-.18,1.25-.15,.59-.42,1.19-.8,1.79-.07,.12-.18,.28-.33,.47-.15,.19-.31,.39-.48,.6-.17,.21-.36,.42-.56,.62-.2,.2-.39,.39-.58,.54,.18,.41,.36,.84,.56,1.29,.2,.45,.4,.89,.59,1.31s.38,.8,.55,1.15c.18,.35,.31,.62,.41,.81l-.15,.16-1.25-.68-.06,1.06-.43-.19-.39,.26-2.57-3.97-1.33,.53-.1,3.18-.34-.04-.71-1.11-.55,1.43-.39-.16c-.01-.42-.04-1.03-.07-1.81-.03-.79-.07-1.65-.09-2.57-.03-.93-.04-1.87-.04-2.82s.03-1.82,.08-2.6l.06-.83-.67-.49,1.12-1.02-1.21-.58Zm3.07,6.68c.51-.2,1.03-.47,1.57-.81,.54-.34,1-.71,1.4-1.11,.39-.4,.68-.82,.86-1.26,.08-.19,.12-.39,.12-.58,0-.23-.06-.45-.18-.67-.12-.23-.39-.37-.8-.44-.33-.06-.67-.08-1.02-.08h-.24c-.51,.03-1.07,.09-1.68,.2l-.04,4.76Z"/>
        <path class="cls-1" d="M189.56,193.42l.29-.68-.15-.28,6.08-.4,.19,.83-1.32,.91,1.25,.38-.17,.47-3.1,.28-.07,3.27,3.1-.1-.35,1.11,.61,.25-.1,.57-3.22,.32,.13,3.46,3.21-.12-.21,1.1,.57,.26-.24,.81-5.01,.29,.08-1.08-1.3,.08,.13-9.94-.26-.42,.91-.79-1.08-.57Zm1.93-2.81l2.38-3.65,.49-.04-.15,.85,1.28-.1-.12,.51,.45,.19-2.83,2.51-.51-.51-.75,.47-.23-.22Z"/>
        <path class="cls-1" d="M201.31,193.42l.29-.68-.15-.28,6.08-.4,.19,.83-1.32,.91,1.25,.38-.17,.47-3.1,.28-.07,3.27,3.1-.1-.35,1.11,.61,.25-.1,.57-3.22,.32,.13,3.46,3.21-.12-.21,1.1,.57,.26-.24,.81-5.01,.29,.08-1.08-1.3,.08,.13-9.94-.26-.42,.91-.79-1.08-.57Z"/>
        <path class="cls-1" d="M209.47,192.57l.92-.49,.74,.78,.92-.31,4.34,7.87h.43l-.12-7.81,.55-.32,.96,1.32,.9-1.34,.39,.06-.02,13.64-.24,.15-.76-.79-1.08,.75-.43-.08-4.29-6.75-.54-.06-.16,6.86-.6-.08-.82-1.13-.61,1.25-.36-.19-.1-13.32Z"/>
        <path class="cls-1" d="M225.35,200.45c0-.8,0-1.51,.01-2.16,0-.64,.03-1.27,.06-1.87,.03-.6,.08-1.22,.13-1.85,.06-.63,.14-1.32,.24-2.07l.7,.28,.83-.63,.79,.49,.29-.1c-.04,.42-.09,.97-.13,1.65-.05,.68-.1,1.39-.14,2.14s-.08,1.47-.1,2.17c0,.3-.01,.58-.02,.84,0,.35,0,.65,.03,.92,.07,1.33,.43,2.18,1.08,2.54,.21,.12,.46,.18,.74,.18,.55,0,1.22-.24,2-.72,.08-.2,.15-.49,.2-.87s.09-.8,.12-1.28c.03-.47,.05-.98,.06-1.52,.01-.54,.02-1.08,.02-1.63,.01-.92,.02-1.83,.03-2.73,0-.9,.02-1.66,.05-2.27l.59-.15,.72,1.44,.94-1.36,.5-.02c-.01,.58-.03,1.38-.05,2.4-.02,1.02-.03,2.15-.05,3.4-.01,1.24-.02,2.54-.02,3.87s.01,2.6,.04,3.79l-.53-.18-.72,.63-.79-.53-.63,.31c-.01-.08-.04-.17-.07-.29-.04-.12-.1-.31-.2-.56-.42,.19-.89,.35-1.4,.48-.51,.13-1.01,.23-1.5,.27-.26,.03-.51,.04-.75,.04-.21,0-.41-.01-.6-.03-.42-.04-.74-.15-.97-.32-.35-.25-.63-.61-.83-1.06-.2-.45-.35-.92-.45-1.4-.1-.48-.16-.93-.18-1.35-.02-.42-.03-.73-.03-.93Z"/>
        <path class="cls-1" d="M236.55,192.57l.92-.49,.74,.78,.92-.31,4.34,7.87h.43l-.12-7.81,.55-.32,.96,1.32,.9-1.34,.39,.06-.02,13.64-.24,.15-.76-.79-1.08,.75-.43-.08-4.29-6.75-.54-.06-.16,6.86-.6-.08-.82-1.13-.61,1.25-.36-.19-.1-13.32Z"/>
        <path class="cls-1" d="M252.25,199.28c0-.41,.06-.95,.18-1.63,.12-.68,.31-1.37,.58-2.07,.26-.7,.61-1.34,1.04-1.91,.43-.57,.96-.96,1.58-1.16,.69-.21,1.35-.36,1.98-.44,.21-.03,.43-.04,.65-.03,.44,0,.9,.05,1.38,.16,.03,.04,.05,.09,.06,.16,.01,.06,.04,.11,.06,.16l-1.46,.52,1.02,.57-.45,.38,.18,.53c-.19,.01-.39,.03-.62,.06-.23,.03-.46,.06-.68,.11s-.44,.09-.65,.15c-.21,.06-.39,.12-.54,.21-.28,.14-.52,.4-.72,.78-.2,.38-.36,.8-.48,1.25-.12,.45-.21,.9-.27,1.35s-.09,.8-.09,1.07c0,.24,.02,.53,.06,.86,.04,.33,.1,.68,.18,1.03s.2,.69,.35,1.01c.15,.32,.34,.58,.59,.78,.12,.11,.31,.2,.57,.26,.26,.06,.54,.11,.85,.14,.31,.03,.63,.05,.96,.07,.33,.01,.63,.02,.92,.02-.03,.03-.06,.07-.09,.11-.03,.05-.07,.11-.11,.18l.45,.49-1.06,.6,1.16,.43c-.03,.11-.06,.19-.08,.25-.85,.19-1.7,.3-2.56,.35-.12,0-.25,.01-.37,.01-.71,0-1.35-.12-1.95-.36-.54-.21-.98-.56-1.32-1.05-.34-.49-.6-1.04-.79-1.64-.19-.61-.32-1.24-.39-1.9-.07-.66-.11-1.27-.11-1.84Z"/>
        <path class="cls-1" d="M261.79,192.84l.4,.06,.59-.43,.62,1.05,1.1-1.47,.34,.11-.36,11.43h3.5l-.87,.74,1.19,.47-.6,.73,.22,.3-4.78,.35-.19-1.16-1.13,.17-.04-12.34Z"/>
        <path class="cls-1" d="M269.96,205.61v-13.21l.44-.17,.66,1.66,.83-1.6,.59,.34,.56-.22-.34,13.43-.24,.08-.83-1.28-.57,1.12-.51-.21-.58,.04Z"/>
        <path class="cls-1" d="M274.75,199.57c0-.62,.02-1.23,.07-1.83,.04-.6,.13-1.18,.25-1.73,.12-.55,.31-1.08,.56-1.58,.25-.5,.58-.96,1-1.37,.31-.31,.71-.54,1.19-.7,.48-.16,.98-.25,1.49-.27,.12,0,.25-.01,.37-.02,.37,0,.73,.03,1.07,.1,.46,.08,.81,.21,1.06,.38,.38,.26,.71,.58,1,.98,.28,.4,.51,.84,.69,1.33,.18,.49,.31,.99,.39,1.52,.08,.53,.12,1.03,.12,1.51,0,.28,0,.56,.01,.83,0,.09,0,.18,0,.27,0,.18,0,.36-.02,.55-.01,.28-.03,.56-.05,.82-.02,.26-.06,.53-.12,.8-.1,.51-.27,1.02-.51,1.53s-.66,1.09-1.25,1.74c.23,.26,.47,.52,.72,.78,.25,.26,.43,.45,.55,.56l-.28,.3-.9-.38-.11,.77-.47,.04c-.07-.07-.19-.21-.37-.44-.18-.22-.37-.45-.56-.69-.32,.1-.67,.17-1.05,.23-.27,.04-.54,.06-.81,.06h-.3c-.37-.03-.74-.1-1.1-.22-.36-.12-.69-.31-1-.57-.27-.21-.5-.53-.71-.94-.2-.42-.37-.87-.5-1.37-.13-.49-.24-1.01-.31-1.55-.07-.54-.11-1.02-.11-1.46Zm2.46-.59c0,.12-.01,.25-.01,.37,0,.25,.01,.5,.03,.77,.03,.39,.08,.76,.17,1.12,.09,.36,.2,.7,.34,1.01,.14,.31,.32,.56,.53,.74,.06,.06,.15,.09,.28,.1,.13,.01,.26,.02,.41,.02,.16,0,.33,0,.51-.02l-.53-1.2,.55,.27,.38-.63,.33,.33c.15,.15,.33,.32,.52,.5,.24-.37,.42-.7,.53-1.01,.11-.31,.19-.6,.24-.89,.04-.28,.07-.54,.07-.76,0-.22,.01-.42,.01-.6,0-.26,0-.54-.02-.86-.01-.32-.04-.64-.09-.96-.04-.32-.11-.63-.19-.92s-.2-.53-.34-.73c-.16-.19-.37-.34-.63-.46-.26-.12-.54-.19-.83-.19h-.05c-.28,0-.54,.06-.8,.17-.28,.12-.49,.31-.64,.59-.21,.38-.39,.84-.53,1.37-.13,.53-.22,1.16-.24,1.87Z"/>
        <path class="cls-1" d="M285.14,200.45c0-.8,0-1.51,.01-2.16,0-.64,.03-1.27,.06-1.87,.03-.6,.08-1.22,.13-1.85,.06-.63,.14-1.32,.24-2.07l.7,.28,.83-.63,.79,.49,.29-.1c-.04,.42-.09,.97-.13,1.65-.05,.68-.1,1.39-.14,2.14s-.08,1.47-.1,2.17c0,.3-.01,.58-.02,.84,0,.35,0,.65,.03,.92,.07,1.33,.43,2.18,1.08,2.54,.21,.12,.46,.18,.74,.18,.55,0,1.22-.24,2-.72,.08-.2,.15-.49,.2-.87s.09-.8,.12-1.28c.03-.47,.05-.98,.06-1.52,.01-.54,.02-1.08,.02-1.63,.01-.92,.02-1.83,.03-2.73,0-.9,.02-1.66,.05-2.27l.59-.15,.72,1.44,.94-1.36,.5-.02c-.01,.58-.03,1.38-.05,2.4-.02,1.02-.03,2.15-.05,3.4-.01,1.24-.02,2.54-.02,3.87s.01,2.6,.04,3.79l-.53-.18-.72,.63-.79-.53-.63,.31c-.01-.08-.04-.17-.07-.29-.04-.12-.1-.31-.2-.56-.42,.19-.89,.35-1.4,.48-.51,.13-1.01,.23-1.5,.27-.26,.03-.51,.04-.75,.04-.21,0-.41-.01-.6-.03-.42-.04-.74-.15-.97-.32-.35-.25-.63-.61-.83-1.06-.2-.45-.35-.92-.45-1.4-.1-.48-.16-.93-.18-1.35-.02-.42-.03-.73-.03-.93Z"/>
        <path class="cls-1" d="M296.07,193.42l.29-.68-.15-.28,6.08-.4,.19,.83-1.32,.91,1.25,.38-.17,.47-3.1,.28-.07,3.27,3.1-.1-.35,1.11,.61,.25-.1,.57-3.22,.32,.13,3.46,3.21-.12-.21,1.1,.57,.26-.24,.81-5.01,.29,.08-1.08-1.3,.08,.13-9.94-.26-.42,.91-.79-1.08-.57Z"/>
      </g>
      <g>
        <path class="cls-1" d="M92.03,81.98c-4.19-10.92-8.66-21.7-14.16-32.03-1-1.88-2.17-2.98-4.47-3.48-6.74-1.47-12.76-9.24-12.92-16.1-.14-5.75,3.41-10.97,9.02-13.17,1.67-.65,3.37-1.23,5.1-1.71,2.39-.66,4.06-2.11,5.33-4.21,1.2-1.99,2.46-3.96,3.92-5.77C86.83,1.81,90.77-.06,95.56,0c4.23,.05,8.33,.59,11.91,3.14,1.46,1.04,2.97,.41,4.45-.11,2.31-.8,4.58-1.89,6.96-2.28,9.07-1.51,15.93,3.81,16.75,12.95,.47,5.27-.57,10.18-4.34,14.27-.49,.54-.66,1.68-.51,2.45,1.23,6.55,2.29,13.15,3.94,19.61,2.1,8.26,4.69,16.39,7.08,24.57,.91,3.14,.3,4.88-2.63,6.35-7.53,3.78-15.09,7.54-23.28,9.67-5.02,1.31-10.13,2.27-15.23,3.26-3.08,.6-4.67-.42-5.75-3.45-1-2.81-1.91-5.65-2.87-8.48Zm-9.49-59.82c-1.79-.46-3.38-.93-5-1.27-6.74-1.41-12.56,3.79-11.97,10.67,.46,5.4,4.43,9.5,10.22,10.26,2.55,.33,4.37,1.41,5.48,3.69,1.66,3.42,3.31,6.86,4.97,10.28,2.52,5.2,5.04,10.39,7.55,15.58,.61,1.27,1.55,1.9,3.01,1.59,2.91-.61,5.92-.93,8.73-1.87,7.08-2.36,14.08-4.97,21.09-7.53,1.23-.45,2.49-.95,3.53-1.71,.64-.47,1.24-1.5,1.21-2.25-.08-2.01-.42-4.02-.83-6-1.69-8.1-3.4-16.2-5.23-24.27-.37-1.64,.08-2.7,1.22-3.77,2.41-2.25,4.16-4.88,4.72-8.22,.84-5-.81-8.24-5.48-10.64-4.89-2.51-8.33-2.02-11.96,1.71-1.19,1.22-2.37,2.46-3.63,3.76-1.53-1.36-2.85-2.64-4.28-3.79-5.21-4.2-12.28-4.36-16.97-.4-3.08,2.6-4.96,5.91-5.64,9.88-.24,1.39-.49,2.78-.75,4.28Zm51.03,44.3c-12.54,4.22-24.67,8.31-36.99,12.45,1.25,3.16,2.41,6.21,3.69,9.21,.14,.32,.99,.58,1.43,.49,11.51-2.4,22.44-6.53,33.22-11.13,.96-.41,1.39-1.08,1.1-2.13-.81-2.92-1.61-5.83-2.46-8.9Z"/>
        <path class="cls-1" d="M93.31,53.8c-.27-.26-.64-.48-.78-.8-1.55-3.4-3.09-6.8-4.56-10.23-.38-.88-.94-2,.46-2.57,1.33-.54,1.88,.48,2.2,1.44,1.12,3.36,2.17,6.75,3.18,10.15,.17,.57,.01,1.23,0,1.85-.17,.06-.34,.11-.52,.17Z"/>
        <path class="cls-1" d="M121.08,44.46c-.29-.25-.72-.44-.86-.76-1.64-3.63-3.27-7.26-4.83-10.92-.39-.91-.21-1.95,1.03-1.93,.58,0,1.48,.64,1.68,1.19,1.14,3.05,2.15,6.16,3.1,9.28,.29,.95,.24,2.01,.35,3.01-.16,.04-.31,.09-.47,.13Z"/>
        <path class="cls-1" d="M103.71,36.11c.71,1.28,1.69,2.49,2.08,3.87,1.01,3.52,1.76,7.12,2.69,11-2.88-2.38-6.32-12.05-5.39-14.54,.21-.11,.41-.22,.62-.32Z"/>
      </g>
    </g>
  </g>
</svg>